<svg xmlns="http://www.w3.org/2000/svg" xmlns:xlink="http://www.w3.org/1999/xlink" width="512" height="512" viewBox="0 0 512 512">
  <defs>
    <linearGradient id="bg-grad" x1="90.45084971874738%" y1="79.38926261462365%" x2="9.549150281252622%" y2="20.61073738537635%">
        <stop offset="0%" stop-color="#ab526b"/>
        <stop offset="100%" stop-color="#bca297"/>
      </linearGradient>
    <clipPath id="canvas-clip">
      <rect width="512" height="512" rx="48" ry="48"/>
    </clipPath>
  </defs>
  <rect width="512" height="512" rx="48" ry="48" fill="url(#bg-grad)"  clip-path="url(#canvas-clip)"/>
  <g clip-path="url(#canvas-clip)">
    <g transform="rotate(0, 256, 256)">
      
      <g transform="translate(113 113) scale(11.958333333333334 11.958333333333334) translate(0 0)"><path fill="none" stroke="#111111" stroke-linecap="round" stroke-width="1.5" d="M18 8.034c-2.88 0-4.873-3.023-8-3.023c-4.418 0-8 3.61-8 8.063c0 1.433.171 3.138.868 4.535c.546 1.097 1.813 1.555 3.013 1.34C10.43 18.13 14 15.002 15 13.004m0 0c-1.769.106-4-.5-6-1.947m6 1.947c2.83-.17 7-2.796 7-5.978s-5-2.016-8-.56"/></g>
    </g>
  </g>
</svg>